<svg version="1.1" id="Layer_1" xmlns="http://www.w3.org/2000/svg" xmlns:xlink="http://www.w3.org/1999/xlink" x="0px" y="0px"
	 width="100%" viewBox="0 0 499 499" enable-background="new 0 0 499 499" xml:space="preserve">
<path fill="#000000" opacity="1.000000" stroke="none" 
	d="
M349.000000,500.000000 
	C232.666687,500.000000 116.833389,500.000000 1.000062,500.000000 
	C1.000041,333.666748 1.000041,167.333466 1.000021,1.000151 
	C167.333221,1.000101 333.666443,1.000101 499.999756,1.000051 
	C499.999817,167.333191 499.999817,333.666382 499.999908,499.999786 
	C449.833344,500.000000 399.666656,500.000000 349.000000,500.000000 
M261.698761,275.734436 
	C265.136169,275.202393 268.605316,274.822723 272.006073,274.114655 
	C303.785889,267.497528 329.125244,251.493729 346.655182,223.621109 
	C360.339874,201.862366 367.289612,178.639038 365.085815,152.739761 
	C363.247772,131.139267 356.206421,111.665245 343.510681,94.143723 
	C330.350464,75.981232 313.645569,62.225853 292.640717,54.254959 
	C267.179413,44.592953 241.401840,44.370785 215.173828,51.904640 
	C191.780396,58.624279 173.711426,72.759926 159.346558,91.416222 
	C145.993896,108.757942 138.237778,128.680984 136.789810,151.058548 
	C135.812332,166.164719 136.957291,180.731506 140.837936,195.307968 
	C145.905319,214.342041 156.501114,230.136566 170.188461,243.562439 
	C182.684357,255.819595 197.554504,265.170959 214.708939,269.947296 
	C221.329132,271.790558 228.235031,272.607819 235.654602,274.257965 
	C237.710709,274.756592 239.753265,275.608521 241.825470,275.688141 
	C248.220795,275.933716 254.627441,275.884644 261.698761,275.734436 
M336.998718,398.002808 
	C336.998718,398.002808 336.986938,397.988373 337.500488,398.537720 
	C342.408417,400.083862 347.354126,401.520508 352.217194,403.196838 
	C366.637665,408.167664 381.553650,412.102203 395.303650,418.523712 
	C416.462067,428.405090 437.557312,438.729340 456.062439,453.397736 
	C456.777100,453.964203 458.052185,453.823547 459.453796,454.084564 
	C457.810394,427.819977 450.859314,403.512512 440.338776,380.256531 
	C430.057129,357.528748 415.565979,337.703003 397.687653,320.186737 
	C388.290894,310.980316 378.647888,302.302399 367.779083,294.844635 
	C352.463684,284.335693 335.852081,276.546539 318.523438,270.212952 
	C314.472809,268.732452 309.607788,267.462341 305.602997,268.331879 
	C299.065155,269.751343 293.120178,273.955170 286.579071,275.294464 
	C272.802155,278.115387 258.798981,281.579407 244.892441,281.563141 
	C228.635620,281.544098 212.712219,276.836884 198.040771,269.174377 
	C194.690598,267.424683 191.569168,267.134766 188.055862,268.500854 
	C179.234848,271.930756 170.156494,274.765656 161.535645,278.629608 
	C142.957687,286.956451 126.067200,298.104126 111.331802,312.125519 
	C101.869720,321.129120 92.948860,330.790924 84.546120,340.796539 
	C73.151993,354.364166 64.655220,369.907837 57.894726,386.188812 
	C50.546379,403.885498 45.942303,422.477173 43.223965,441.477356 
	C42.606239,445.794983 42.414352,450.173584 42.026459,454.524109 
	C69.669655,436.165985 97.717903,421.210236 127.786095,409.935211 
	C149.390747,401.833862 171.633759,396.125702 194.303345,392.549286 
	C218.129288,388.790436 242.230545,386.542694 266.406586,388.740417 
	C283.773590,390.319122 301.083069,392.567810 318.391937,394.728302 
	C324.638306,395.507965 330.808044,396.901550 336.998718,398.002808 
z"/>
<path fill="#1A1A1A" opacity="1.000000" stroke="none" 
	d="
M337.012756,398.014984 
	C330.808044,396.901550 324.638306,395.507965 318.391937,394.728302 
	C301.083069,392.567810 283.773590,390.319122 266.406586,388.740417 
	C242.230545,386.542694 218.129288,388.790436 194.303345,392.549286 
	C171.633759,396.125702 149.390747,401.833862 127.786095,409.935211 
	C97.717903,421.210236 69.669655,436.165985 42.026459,454.524109 
	C42.414352,450.173584 42.606239,445.794983 43.223965,441.477356 
	C45.942303,422.477173 50.546379,403.885498 57.894726,386.188812 
	C64.655220,369.907837 73.151993,354.364166 84.546120,340.796539 
	C92.948860,330.790924 101.869720,321.129120 111.331802,312.125519 
	C126.067200,298.104126 142.957687,286.956451 161.535645,278.629608 
	C170.156494,274.765656 179.234848,271.930756 188.055862,268.500854 
	C191.569168,267.134766 194.690598,267.424683 198.040771,269.174377 
	C212.712219,276.836884 228.635620,281.544098 244.892441,281.563141 
	C258.798981,281.579407 272.802155,278.115387 286.579071,275.294464 
	C293.120178,273.955170 299.065155,269.751343 305.602997,268.331879 
	C309.607788,267.462341 314.472809,268.732452 318.523438,270.212952 
	C335.852081,276.546539 352.463684,284.335693 367.779083,294.844635 
	C378.647888,302.302399 388.290894,310.980316 397.687653,320.186737 
	C415.565979,337.703003 430.057129,357.528748 440.338776,380.256531 
	C450.859314,403.512512 457.810394,427.819977 459.453796,454.084564 
	C458.052185,453.823547 456.777100,453.964203 456.062439,453.397736 
	C437.557312,438.729340 416.462067,428.405090 395.303650,418.523712 
	C381.553650,412.102203 366.637665,408.167664 352.217194,403.196838 
	C347.354126,401.520508 342.408417,400.083862 337.253601,398.243408 
	C337.006683,397.949097 337.012756,398.014984 337.012756,398.014984 
z"/>
<path fill="#1A1A1A" opacity="1.000000" stroke="none" 
	d="
M235.010757,273.892517 
	C228.235031,272.607819 221.329132,271.790558 214.708939,269.947296 
	C197.554504,265.170959 182.684357,255.819595 170.188461,243.562439 
	C156.501114,230.136566 145.905319,214.342041 140.837936,195.307968 
	C136.957291,180.731506 135.812332,166.164719 136.789810,151.058548 
	C138.237778,128.680984 145.993896,108.757942 159.346558,91.416222 
	C173.711426,72.759926 191.780396,58.624279 215.173828,51.904640 
	C241.401840,44.370785 267.179413,44.592953 292.640717,54.254959 
	C313.645569,62.225853 330.350464,75.981232 343.510681,94.143723 
	C356.206421,111.665245 363.247772,131.139267 365.085815,152.739761 
	C367.289612,178.639038 360.339874,201.862366 346.655182,223.621109 
	C329.125244,251.493729 303.785889,267.497528 272.006073,274.114655 
	C268.605316,274.822723 265.136169,275.202393 261.081970,275.598114 
	C251.980347,274.938690 243.495560,274.415619 235.010757,273.892517 
z"/>
<path fill="#0D0D0D" opacity="1.000000" stroke="none" 
	d="
M235.332672,274.075256 
	C243.495560,274.415619 251.980347,274.938690 260.747437,275.705902 
	C254.627441,275.884644 248.220795,275.933716 241.825470,275.688141 
	C239.753265,275.608521 237.710709,274.756592 235.332672,274.075256 
z"/>
<path fill="#000000" opacity="1.000000" stroke="none" 
	d="
M337.005737,398.008911 
	C337.012756,398.014984 337.006683,397.949097 336.996826,397.968750 
	C336.986938,397.988373 336.998718,398.002808 337.005737,398.008911 
z"/>
</svg>